<svg width="34" height="39" viewBox="0 0 34 39" fill="none" xmlns="http://www.w3.org/2000/svg">
<path d="M12.2378 4.7069C12.2378 3.77596 12.5169 2.86593 13.0398 2.09189C13.5628 1.31784 14.3061 0.714547 15.1757 0.358293C16.0453 0.00203942 17.0022 -0.0911728 17.9253 0.0904438C18.8485 0.27206 19.6965 0.720349 20.3621 1.37862C21.0276 2.03689 21.4809 2.87558 21.6645 3.78863C21.8482 4.70168 21.7539 5.64808 21.3937 6.50815C21.0335 7.36822 20.4235 8.10334 19.6409 8.62054C18.8583 9.13774 17.9381 9.41379 16.9969 9.41379C15.7347 9.41379 14.5242 8.91789 13.6317 8.03518C12.7392 7.15246 12.2378 5.95524 12.2378 4.7069ZM33.9256 14.2165C33.8018 13.614 33.4691 13.0731 32.985 12.6873C32.5009 12.3015 31.8958 12.095 31.2742 12.1034H2.71962C2.09962 12.1034 1.49821 12.3129 1.01509 12.6972C0.531961 13.0816 0.196116 13.6176 0.0632154 14.2166C-0.0696857 14.8155 0.00833605 15.4414 0.28435 15.9905C0.560364 16.5396 1.0178 16.9789 1.58084 17.2356H1.59104L10.7506 21.2247L7.0249 35.2278C6.74057 35.8711 6.72185 36.5989 6.97274 37.2556C7.22363 37.9124 7.72424 38.4461 8.36764 38.7428C8.72724 38.9117 9.12024 38.9995 9.51832 39C10.031 39.0007 10.5334 38.8582 10.9676 38.5887C11.4019 38.3192 11.7503 37.9338 11.9726 37.477L16.9969 28.9138L22.0245 37.4871C22.3372 38.1162 22.886 38.5997 23.5538 38.8347C24.2216 39.0696 24.9558 39.0373 25.6 38.7447C26.2441 38.4522 26.7473 37.9224 27.0024 37.2683C27.2574 36.6142 27.2442 35.8875 26.9655 35.2429L23.2398 21.2399L32.418 17.2457C32.9876 16.9946 33.4503 16.5541 33.7257 16.0007C34.0011 15.4474 34.0718 14.8161 33.9256 14.2165Z" fill="#343330"/>
</svg>
