<svg width="32" height="32" viewBox="0 0 32 32" fill="none" xmlns="http://www.w3.org/2000/svg">
<path d="M16.9542 0.000843083C16.8464 -0.00480159 16.7391 0.017974 16.6429 0.0668882C16.5468 0.115802 16.4651 0.189138 16.4062 0.279549C14.8209 2.67703 14.7747 4.8805 14.7747 4.91284C14.7754 5.09616 14.817 5.277 14.8965 5.44219C14.976 5.60737 15.0913 5.75273 15.234 5.86766C15.3768 5.98259 15.5434 6.0642 15.7217 6.10653C15.9 6.14886 16.0855 6.15085 16.2646 6.11235C16.5443 6.04535 16.7928 5.88526 16.9696 5.65836C17.1463 5.43146 17.2407 5.15121 17.2374 4.86357C17.2433 4.69507 17.2837 4.52958 17.3561 4.37734C17.4285 4.2251 17.5313 4.08934 17.6583 3.97849C17.7853 3.86763 17.9337 3.78402 18.0942 3.73285C18.2548 3.68168 18.4242 3.66403 18.5918 3.68099C18.9009 3.71688 19.1855 3.8665 19.3903 4.10074C19.5952 4.33498 19.7056 4.63708 19.7 4.94826C19.6945 5.92838 19.3001 6.86616 18.6034 7.55531C17.9067 8.24446 16.965 8.62853 15.9853 8.62302C15.0055 8.6175 14.0682 8.22286 13.3793 7.52592C12.6904 6.82897 12.3065 5.8868 12.312 4.90668C12.312 4.80967 12.3259 3.24676 13.1493 1.21113C13.191 1.10697 13.2035 0.993383 13.1854 0.882644C13.1673 0.771906 13.1193 0.668222 13.0465 0.58279C12.9738 0.497359 12.8792 0.433425 12.7728 0.397892C12.6664 0.36236 12.5523 0.35658 12.4429 0.381176C8.81483 1.2149 5.58987 3.28567 3.32124 6.23825C1.05261 9.19083 -0.118276 12.8412 0.00944526 16.5631C0.306505 25.0413 7.26817 31.8595 15.7475 31.9981C19.9303 32.0622 23.972 30.4856 27.0075 27.6058C30.0429 24.726 31.8309 20.7718 31.9886 16.5897C32.1463 12.4076 30.6613 8.3299 27.8514 5.22946C25.0415 2.12903 21.13 0.252238 16.9542 0.000843083ZM8.61802 15.9856C8.61802 15.6202 8.72635 15.2629 8.9293 14.9591C9.13225 14.6552 9.42071 14.4184 9.75821 14.2785C10.0957 14.1386 10.4671 14.1021 10.8254 14.1734C11.1836 14.2447 11.5127 14.4206 11.7711 14.679C12.0294 14.9375 12.2053 15.2667 12.2765 15.6251C12.3478 15.9836 12.3112 16.3551 12.1714 16.6927C12.0316 17.0304 11.7949 17.319 11.4912 17.522C11.1874 17.725 10.8303 17.8334 10.465 17.8334C9.97517 17.8334 9.50538 17.6387 9.159 17.2922C8.81262 16.9457 8.61802 16.4757 8.61802 15.9856ZM20.9729 24.4192C19.4828 25.3485 17.762 25.8411 16.006 25.8411C14.2501 25.8411 12.5293 25.3485 11.0391 24.4192C10.7628 24.2448 10.567 23.9677 10.4948 23.6489C10.4227 23.3301 10.48 22.9957 10.6543 22.7192C10.8287 22.4427 11.1056 22.2469 11.4243 22.1747C11.7429 22.1025 12.0772 22.1599 12.3536 22.3343C13.4503 23.0152 14.7153 23.376 16.006 23.376C17.2968 23.376 18.5618 23.0152 19.6585 22.3343C19.7953 22.2479 19.9478 22.1894 20.1073 22.162C20.2667 22.1346 20.43 22.1389 20.5878 22.1747C20.7456 22.2104 20.8948 22.2769 21.0269 22.3703C21.159 22.4638 21.2714 22.5823 21.3577 22.7192C21.444 22.8561 21.5026 23.0087 21.5299 23.1682C21.5573 23.3277 21.553 23.4911 21.5173 23.6489C21.4815 23.8068 21.4151 23.956 21.3217 24.0882C21.2283 24.2204 21.1098 24.3328 20.9729 24.4192ZM21.5471 17.8334C21.1817 17.8334 20.8247 17.725 20.5209 17.522C20.2172 17.319 19.9804 17.0304 19.8406 16.6927C19.7008 16.3551 19.6643 15.9836 19.7355 15.6251C19.8068 15.2667 19.9827 14.9375 20.241 14.679C20.4993 14.4206 20.8284 14.2447 21.1867 14.1734C21.545 14.1021 21.9164 14.1386 22.2539 14.2785C22.5914 14.4184 22.8798 14.6552 23.0828 14.9591C23.2857 15.2629 23.3941 15.6202 23.3941 15.9856C23.3941 16.4757 23.1995 16.9457 22.8531 17.2922C22.5067 17.6387 22.0369 17.8334 21.5471 17.8334Z" fill="#343330"/>
</svg>
