<svg width="32" height="32" viewBox="0 0 32 32" fill="none" xmlns="http://www.w3.org/2000/svg">
<path d="M28.9249 5.54248C28.9249 5.54248 28.9249 5.55498 28.9249 5.56123L21.6499 29.5537C21.5398 29.9434 21.3131 30.2901 21.0003 30.5473C20.6875 30.8044 20.3035 30.9598 19.8999 30.9925C19.8424 30.9975 19.7849 31 19.7274 31C19.3491 31.0012 18.9784 30.8941 18.6591 30.6914C18.3397 30.4888 18.0849 30.199 17.9249 29.8562L13.3749 20.5187C13.3294 20.4252 13.3142 20.3197 13.3314 20.2171C13.3487 20.1145 13.3975 20.0198 13.4711 19.9462L20.7111 12.7062C20.8908 12.5172 20.9894 12.2654 20.9861 12.0047C20.9827 11.7439 20.8777 11.4948 20.6933 11.3104C20.5089 11.1259 20.2597 11.0209 19.999 11.0175C19.7382 11.0142 19.4865 11.1129 19.2974 11.2925L12.0536 18.5325C11.9801 18.6061 11.8854 18.6549 11.7828 18.6722C11.6802 18.6895 11.5747 18.6743 11.4811 18.6287L2.1349 14.08C1.76942 13.9046 1.46585 13.6224 1.26442 13.2706C1.06298 12.9189 0.973194 12.5142 1.00695 12.1102C1.0407 11.7063 1.1964 11.3221 1.45342 11.0087C1.71044 10.6952 2.05664 10.4672 2.44615 10.355L26.4386 3.07998H26.4574C26.799 2.98401 27.16 2.98064 27.5033 3.07023C27.8467 3.15982 28.16 3.33914 28.4111 3.58979C28.6623 3.84043 28.8422 4.15339 28.9325 4.49654C29.0228 4.83969 29.0202 5.20068 28.9249 5.54248Z" fill="#F7FFEA" fill-opacity="0.8"/>
</svg>
